<svg xmlns="http://www.w3.org/2000/svg" xmlns:xlink="http://www.w3.org/1999/xlink" width="500" zoomAndPan="magnify" viewBox="0 0 375 374.999991" height="500" preserveAspectRatio="xMidYMid meet" version="1.0"><rect x="-37.5" width="450" fill="#ffffff" y="-37.499999" height="449.999989" fill-opacity="1"/><rect x="-37.5" width="450" fill="#ffffff" y="-37.499999" height="449.999989" fill-opacity="1"/><rect x="-37.5" width="450" fill="#ffffff" y="-37.499999" height="449.999989" fill-opacity="1"/><path stroke-linecap="round" transform="matrix(6.505072, -3.788677, 3.77461, 6.480919, 191.409851, 226.95892)" fill="none" stroke-linejoin="miter" d="M 0.50007 0.00032265 L 9.563455 0.0000748828 " stroke="#000000" stroke-width="1" stroke-opacity="1" stroke-miterlimit="4"/><path stroke-linecap="round" transform="matrix(6.499252, -3.752345, 3.75, 6.49519, 189.52275, 110.961893)" fill="none" stroke-linejoin="miter" d="M 0.500108 0.0000958178 L 1.999102 0.0000559243 " stroke="#000000" stroke-width="1" stroke-opacity="1" stroke-miterlimit="4"/><path stroke-linecap="round" transform="matrix(6.431839, -3.746025, 3.77461, 6.480919, 186.087487, 132.398562)" fill="none" stroke-linejoin="miter" d="M 0.500027 0.00029275 L 3.832783 -0.000277501 " stroke="#000000" stroke-width="1" stroke-opacity="1" stroke-miterlimit="4"/><path stroke-linecap="round" transform="matrix(6.405575, -3.791901, 3.820538, 6.453951, 183.542527, 153.606816)" fill="none" stroke-linejoin="miter" d="M 0.500085 0.0000612521 L 5.546471 -0.000143862 " stroke="#000000" stroke-width="1" stroke-opacity="1" stroke-miterlimit="4"/><path stroke-linecap="round" transform="matrix(6.465316, -3.827266, 3.820538, 6.453951, 188.019851, 190.21175)" fill="none" stroke-linejoin="miter" d="M 0.500244 -0.0000476455 L 7.486457 -0.0000765861 " stroke="#000000" stroke-width="1" stroke-opacity="1" stroke-miterlimit="4"/><path stroke-linecap="round" transform="matrix(-6.485745, 3.777421, -3.77461, -6.480919, 315.104749, 289.412295)" fill="none" stroke-linejoin="miter" d="M 0.499823 -0.0000685008 L 1.599011 -0.000106919 " stroke="#000000" stroke-width="1" stroke-opacity="1" stroke-miterlimit="4"/><path stroke-linecap="round" transform="matrix(-6.487458, 3.778419, -3.77461, -6.480919, 307.306684, 276.033937)" fill="none" stroke-linejoin="miter" d="M 0.499967 0.000177015 L 2.598437 0.0000556809 " stroke="#000000" stroke-width="1" stroke-opacity="1" stroke-miterlimit="4"/><path stroke-linecap="round" transform="matrix(-6.447616, 3.722533, -3.75, -6.49519, 298.898334, 261.576576)" fill="none" stroke-linejoin="miter" d="M 0.499831 -0.0000441717 L 3.126668 0.000132006 " stroke="#000000" stroke-width="1" stroke-opacity="1" stroke-miterlimit="4"/><path stroke-linecap="round" transform="matrix(-6.476217, 3.739046, -3.75, -6.49519, 289.550875, 247.268715)" fill="none" stroke-linejoin="miter" d="M 0.499929 0.000193189 L 4.315038 0.0000762272 " stroke="#000000" stroke-width="1" stroke-opacity="1" stroke-miterlimit="4"/><path stroke-linecap="round" transform="matrix(-6.539617, 3.77565, -3.75, -6.49519, 273.466275, 217.895126)" fill="none" stroke-linejoin="miter" d="M 0.50002 0.000273414 L 6.353308 0.0000278061 " stroke="#000000" stroke-width="1" stroke-opacity="1" stroke-miterlimit="4"/><path stroke-linecap="round" transform="matrix(6.505072, -3.788677, 3.77461, 6.480919, 182.991129, 212.499142)" fill="none" stroke-linejoin="miter" d="M 0.499786 -0.0000225046 L 9.563619 -0.00000814576 " stroke="#000000" stroke-width="1" stroke-opacity="1" stroke-miterlimit="4"/><path stroke-linecap="round" transform="matrix(6.503366, -3.75472, 3.75, 6.49519, 208.608507, 236.019873)" fill="none" stroke-linejoin="miter" d="M 0.500032 -0.000272262 L 8.189498 -0.000164827 " stroke="#000000" stroke-width="1" stroke-opacity="1" stroke-miterlimit="4"/><path stroke-linecap="round" transform="matrix(-6.472354, 3.736815, -3.75, -6.49519, 281.884527, 232.353326)" fill="none" stroke-linejoin="miter" d="M 0.500052 -0.000112411 L 5.722172 0.000254002 " stroke="#000000" stroke-width="1" stroke-opacity="1" stroke-miterlimit="4"/><path stroke-linecap="round" transform="matrix(-6.454266, 3.726372, -3.75, -6.49519, 231.155337, 145.233828)" fill="none" stroke-linejoin="miter" d="M 0.499871 -0.000173079 L 6.444863 -0.0000325564 " stroke="#000000" stroke-width="1" stroke-opacity="1" stroke-miterlimit="4"/><path stroke-linecap="round" transform="matrix(5.629836, -9.751162, 9.742785, 5.625, 45.465916, 311.022256)" fill="none" stroke-linejoin="miter" d="M 0.499883 0.000110391 L 24.944874 0.0000903332 " stroke="#000000" stroke-width="1" stroke-opacity="1" stroke-miterlimit="4"/><path stroke-linecap="round" transform="matrix(5.625229, 9.743182, -9.742785, 5.625, 185.908675, 63.12217)" fill="none" stroke-linejoin="miter" d="M 0.49994 -0.000175187 L 25.033082 -0.000109564 " stroke="#000000" stroke-width="1" stroke-opacity="1" stroke-miterlimit="4"/><path stroke-linecap="round" transform="matrix(11.256943, 0, 0, 11.249999, 44.895386, 309.556796)" fill="none" stroke-linejoin="miter" d="M 0.499963 0.000159758 L 24.818289 0.000159758 " stroke="#000000" stroke-width="1" stroke-opacity="1" stroke-miterlimit="4"/><path stroke-linecap="round" transform="matrix(0.000000000000000688, -11.243177, 11.249999, 0.000000000000000689, 187.308479, 223.043246)" fill="none" stroke-linejoin="miter" d="M 0.499981 0.0000101644 L 13.242084 0.0000101644 " stroke="#000000" stroke-width="1" stroke-opacity="1" stroke-miterlimit="4"/><path stroke-linecap="round" transform="matrix(9.518048, -6.021741, 6.014804, 9.507082, 49.92908, 306.62374)" fill="none" stroke-linejoin="miter" d="M 0.499935 0.00000222813 L 13.950537 -0.00000314763 " stroke="#000000" stroke-width="1" stroke-opacity="1" stroke-miterlimit="4"/><path stroke-linecap="round" transform="matrix(-9.509288, -5.986003, 5.993198, -9.520718, 327.751625, 309.101728)" fill="none" stroke-linejoin="miter" d="M 0.500036 -0.000090784 L 14.251429 -0.000035025 " stroke="#000000" stroke-width="1" stroke-opacity="1" stroke-miterlimit="4"/></svg>